<svg width="34" height="33" viewBox="0 0 34 33" fill="none" xmlns="http://www.w3.org/2000/svg">
<path d="M16.5431 10.1436C14.8554 10.1436 13.2369 10.8134 12.0435 12.0058C10.8501 13.1981 10.1797 14.8153 10.1797 16.5016C10.1797 18.1878 10.8501 19.805 12.0435 20.9973C13.2369 22.1897 14.8554 22.8596 16.5431 22.8596C18.2308 22.8596 19.8494 22.1897 21.0428 20.9973C22.2362 19.805 22.9066 18.1878 22.9066 16.5016C22.9066 14.8153 22.2362 13.1981 21.0428 12.0058C19.8494 10.8134 18.2308 10.1436 16.5431 10.1436ZM16.5431 20.6307C15.4467 20.6307 14.3952 20.1955 13.6199 19.4209C12.8446 18.6463 12.4091 17.5957 12.4091 16.5002C12.4091 15.4047 12.8446 14.3541 13.6199 13.5795C14.3952 12.8049 15.4467 12.3697 16.5431 12.3697C17.6396 12.3697 18.6911 12.8049 19.4664 13.5795C20.2416 14.3541 20.6772 15.4047 20.6772 16.5002C20.6772 17.5957 20.2416 18.6463 19.4664 19.4209C18.6911 20.1955 17.6396 20.6307 16.5431 20.6307Z" fill="white"/>
<path d="M23.1583 11.3917C23.9777 11.3917 24.6418 10.7281 24.6418 9.9095C24.6418 9.09087 23.9777 8.42725 23.1583 8.42725C22.339 8.42725 21.6748 9.09087 21.6748 9.9095C21.6748 10.7281 22.339 11.3917 23.1583 11.3917Z" fill="white"/>
<path d="M28.2874 8.40259C27.9688 7.58058 27.482 6.8341 26.858 6.21092C26.2341 5.58773 25.4868 5.10158 24.6639 4.78359C23.7011 4.42245 22.6839 4.22718 21.6556 4.20609C20.3304 4.14834 19.9106 4.13184 16.55 4.13184C13.1894 4.13184 12.7586 4.13184 11.4444 4.20609C10.4169 4.2261 9.4004 4.42141 8.43879 4.78359C7.61574 5.10121 6.86824 5.58723 6.24424 6.21046C5.62024 6.83369 5.13352 7.58037 4.81531 8.40259C4.45379 9.36455 4.2588 10.381 4.23869 11.4083C4.17951 12.7311 4.16162 13.1505 4.16162 16.5096C4.16162 19.8673 4.16162 20.295 4.23869 21.6108C4.25933 22.6393 4.45337 23.6541 4.81531 24.618C5.13441 25.4399 5.6216 26.1863 6.24576 26.8094C6.86991 27.4325 7.6173 27.9187 8.44016 28.237C9.39996 28.6126 10.4169 28.8219 11.4471 28.8557C12.7724 28.9135 13.1921 28.9313 16.5527 28.9313C19.9134 28.9313 20.3441 28.9313 21.6584 28.8557C22.6865 28.8348 23.7037 28.64 24.6667 28.2796C25.4893 27.9608 26.2364 27.4743 26.8603 26.8509C27.4842 26.2276 27.9712 25.4811 28.2902 24.6592C28.6521 23.6967 28.8461 22.682 28.8668 21.6535C28.926 20.3307 28.9439 19.9113 28.9439 16.5522C28.9439 13.1931 28.9439 12.7668 28.8668 11.451C28.8508 10.4091 28.6548 9.3778 28.2874 8.40259ZM26.6112 21.5091C26.6024 22.3015 26.4576 23.0865 26.1832 23.8301C25.9766 24.3648 25.6602 24.8503 25.2544 25.2555C24.8487 25.6607 24.3625 25.9765 23.8272 26.1827C23.0913 26.4556 22.3139 26.6002 21.529 26.6103C20.2216 26.6708 19.8528 26.686 16.5004 26.686C13.1453 26.686 12.8027 26.686 11.4705 26.6103C10.686 26.6007 9.90899 26.4561 9.17367 26.1827C8.63653 25.9778 8.14842 25.6625 7.74091 25.2573C7.33341 24.852 7.01559 24.3658 6.80801 23.8301C6.53752 23.0945 6.39284 22.3187 6.38002 21.5352C6.32085 20.229 6.30708 19.8605 6.30708 16.511C6.30708 13.1601 6.30708 12.8177 6.38002 11.4853C6.38892 10.6934 6.53368 9.90879 6.80801 9.16571C7.22775 8.08084 8.08786 7.22696 9.17367 6.81171C9.90936 6.53965 10.6861 6.39504 11.4705 6.38409C12.7793 6.32496 13.1467 6.30846 16.5004 6.30846C19.8542 6.30846 20.1982 6.30846 21.529 6.38409C22.314 6.39352 23.0915 6.53818 23.8272 6.81171C24.3625 7.01834 24.8485 7.33449 25.2543 7.73988C25.66 8.14527 25.9764 8.63093 26.1832 9.16571C26.4537 9.90127 26.5984 10.6771 26.6112 11.4606C26.6704 12.7682 26.6855 13.1353 26.6855 16.4862C26.6855 19.8357 26.6855 20.196 26.6264 21.5105H26.6112V21.5091Z" fill="white"/>
</svg>
