<svg width="33" height="32" viewBox="0 0 33 32" fill="none" xmlns="http://www.w3.org/2000/svg">
<path d="M26.7872 4H5.43555C5.08163 4 4.7422 4.14048 4.49193 4.39052C4.24167 4.64057 4.10107 4.97971 4.10107 5.33333V26.6667C4.10107 27.0203 4.24167 27.3594 4.49193 27.6095C4.7422 27.8595 5.08163 28 5.43555 28H26.7872C27.1411 28 27.4805 27.8595 27.7308 27.6095C27.9811 27.3594 28.1217 27.0203 28.1217 26.6667V5.33333C28.1217 4.97971 27.9811 4.64057 27.7308 4.39052C27.4805 4.14048 27.1411 4 26.7872 4ZM11.2258 24.4493H7.66012V12.996H11.2258V24.4493ZM9.44298 11.432C8.89511 11.432 8.36967 11.2145 7.98226 10.8275C7.59486 10.4404 7.37721 9.91541 7.37721 9.368C7.37721 8.82059 7.59486 8.29561 7.98226 7.90853C8.36967 7.52146 8.89511 7.304 9.44298 7.304C9.99086 7.304 10.5163 7.52146 10.9037 7.90853C11.2911 8.29561 11.5088 8.82059 11.5088 9.368C11.5088 9.91541 11.2911 10.4404 10.9037 10.8275C10.5163 11.2145 9.99086 11.432 9.44298 11.432ZM24.5693 24.4493H21.0076V18.88C21.0076 17.552 20.9835 15.844 19.1553 15.844C17.3004 15.844 17.0188 17.292 17.0188 18.7867V24.4507H13.4598V12.9973H16.876V14.5627H16.9254C17.3991 13.6627 18.5628 12.7133 20.2936 12.7133C23.902 12.7133 24.5679 15.084 24.5679 18.1693L24.5693 24.4493Z" fill="white"/>
</svg>
