<svg xmlns="http://www.w3.org/2000/svg" width="17" height="17" viewBox="0 0 17 17" fill="none">
  <path d="M12.0721 10.6221H11.359L11.1063 10.3615C11.9909 9.26113 12.5235 7.83256 12.5235 6.27851C12.5235 2.81327 9.89663 0.00439453 6.65592 0.00439453C3.4152 0.00439453 0.78833 2.81327 0.78833 6.27851C0.78833 9.74375 3.4152 12.5526 6.65592 12.5526C8.10927 12.5526 9.44528 11.9831 10.4744 11.0372L10.7181 11.3075V12.07L15.2316 16.8866L16.5767 15.4484L12.0721 10.6221ZM6.65592 10.6221C4.40818 10.6221 2.59374 8.68198 2.59374 6.27851C2.59374 3.87504 4.40818 1.93489 6.65592 1.93489C8.90365 1.93489 10.7181 3.87504 10.7181 6.27851C10.7181 8.68198 8.90365 10.6221 6.65592 10.6221Z" fill="#9CA3AF"/>
</svg>