<svg xmlns="http://www.w3.org/2000/svg" width="30" height="31" viewBox="0 0 30 31" fill="none">
  <path d="M19.6375 15.9037C20.863 14.9386 21.7575 13.615 22.1965 12.1173C22.6356 10.6195 22.5974 9.022 22.0872 7.54699C21.5771 6.07198 20.6203 4.79282 19.3501 3.88747C18.0799 2.98212 16.5593 2.49561 15 2.49561C13.4407 2.49561 11.9201 2.98212 10.6499 3.88747C9.37968 4.79282 8.42293 6.07198 7.91276 7.54699C7.4026 9.022 7.36439 10.6195 7.80345 12.1173C8.24251 13.615 9.13701 14.9386 10.3625 15.9037C8.26259 16.7459 6.43036 18.1427 5.06111 19.9453C3.69187 21.7478 2.83695 23.8885 2.5875 26.1392C2.56944 26.3035 2.58389 26.4698 2.63003 26.6285C2.67616 26.7873 2.75308 26.9354 2.85639 27.0643C3.06502 27.3248 3.36848 27.4916 3.7 27.5281C4.03152 27.5647 4.36395 27.4678 4.62415 27.259C4.88436 27.0501 5.05103 26.7464 5.0875 26.4145C5.36198 23.9685 6.5271 21.7094 8.36027 20.069C10.1934 18.4285 12.5661 17.5217 15.025 17.5217C17.4839 17.5217 19.8566 18.4285 21.6897 20.069C23.5229 21.7094 24.688 23.9685 24.9625 26.4145C24.9965 26.722 25.143 27.0059 25.3739 27.2116C25.6047 27.4173 25.9035 27.53 26.2125 27.5281H26.35C26.6777 27.4904 26.9772 27.3246 27.1832 27.0667C27.3892 26.8089 27.4851 26.48 27.45 26.1517C27.1994 23.8947 26.3398 21.7485 24.9636 19.9431C23.5873 18.1378 21.7461 16.7414 19.6375 15.9037ZM15 15.0153C14.0111 15.0153 13.0444 14.7218 12.2221 14.1718C11.3999 13.6218 10.759 12.8401 10.3806 11.9256C10.0022 11.011 9.90314 10.0046 10.0961 9.03373C10.289 8.06283 10.7652 7.171 11.4645 6.47102C12.1637 5.77104 13.0546 5.29435 14.0245 5.10122C14.9945 4.9081 15.9998 5.00722 16.9134 5.38604C17.827 5.76487 18.6079 6.40639 19.1573 7.22948C19.7068 8.05257 20 9.02026 20 10.0102C20 11.3376 19.4732 12.6107 18.5355 13.5493C17.5978 14.488 16.3261 15.0153 15 15.0153Z" fill="#F6F6F6"/>
</svg>