<svg xmlns="http://www.w3.org/2000/svg" width="30" height="31" viewBox="0 0 30 31" fill="none">
  <path d="M28.475 13.0364C28.3574 12.8913 28.2087 12.7743 28.04 12.6942C27.8713 12.6141 27.6867 12.5728 27.5 12.5735H25V11.3222C25 10.3266 24.6049 9.37179 23.9017 8.66781C23.1984 7.96383 22.2446 7.56833 21.25 7.56833H13.4L13 6.31705C12.7407 5.58283 12.2597 4.94752 11.6236 4.49913C10.9876 4.05075 10.2279 3.81148 9.45 3.81448H5C4.00544 3.81448 3.05161 4.20997 2.34835 4.91396C1.64509 5.61794 1.25 6.57275 1.25 7.56833V22.5837C1.25 23.5793 1.64509 24.5341 2.34835 25.2381C3.05161 25.9421 4.00544 26.3376 5 26.3376H23C23.8515 26.3351 24.6768 26.0426 25.3402 25.5082C26.0036 24.9737 26.4655 24.2292 26.65 23.3971L28.75 14.1C28.788 13.9135 28.783 13.7207 28.7353 13.5364C28.6877 13.3521 28.5987 13.1811 28.475 13.0364ZM6.7125 22.859C6.649 23.1413 6.48974 23.3928 6.26183 23.5707C6.03392 23.7487 5.75145 23.8421 5.4625 23.835H5C4.66848 23.835 4.35054 23.7032 4.11612 23.4685C3.8817 23.2339 3.75 22.9156 3.75 22.5837V7.56833C3.75 7.23647 3.8817 6.9182 4.11612 6.68354C4.35054 6.44888 4.66848 6.31705 5 6.31705H9.45C9.72258 6.30281 9.99233 6.37827 10.218 6.53191C10.4438 6.68555 10.613 6.90893 10.7 7.16792L11.375 9.22003C11.4552 9.4587 11.6055 9.6676 11.8062 9.8194C12.0069 9.97121 12.2487 10.0589 12.5 10.0709H21.25C21.5815 10.0709 21.8995 10.2027 22.1339 10.4374C22.3683 10.6721 22.5 10.9903 22.5 11.3222V12.5735H10C9.71105 12.5664 9.42858 12.6598 9.20067 12.8377C8.97276 13.0157 8.8135 13.2672 8.75 13.5495L6.7125 22.859ZM24.2125 22.859C24.149 23.1413 23.9897 23.3928 23.7618 23.5707C23.5339 23.7487 23.2515 23.8421 22.9625 23.835H9.0125C9.07706 23.6956 9.12328 23.5484 9.15 23.3971L11 15.076H26L24.2125 22.859Z" fill="white"/>
</svg>