<svg width="36" height="35" viewBox="0 0 36 35" fill="none" xmlns="http://www.w3.org/2000/svg">
<path d="M31.5795 10.5042C31.4132 9.88793 31.0883 9.3259 30.6371 8.87405C30.1859 8.42221 29.6241 8.09631 29.0077 7.92881C26.722 7.30172 17.5777 7.29151 17.5777 7.29151C17.5777 7.29151 8.43487 7.28131 6.1477 7.88068C5.53165 8.05589 4.97101 8.3864 4.51963 8.84046C4.06824 9.29452 3.74126 9.8569 3.57007 10.4736C2.96727 12.7573 2.96143 17.494 2.96143 17.494C2.96143 17.494 2.95559 22.254 3.55402 24.5144C3.88972 25.7642 4.87494 26.7515 6.12727 27.0884C8.43633 27.7155 17.5558 27.7257 17.5558 27.7257C17.5558 27.7257 26.7001 27.7359 28.9858 27.138C29.6025 26.9708 30.1648 26.6456 30.6171 26.1947C31.0695 25.7438 31.3961 25.1827 31.5649 24.5669C32.1692 22.2846 32.1735 17.5494 32.1735 17.5494C32.1735 17.5494 32.2027 12.788 31.5795 10.5042ZM14.6527 21.8821L14.66 13.1321L22.26 17.5144L14.6527 21.8821Z" fill="white"/>
</svg>
